<svg width="196" height="173" viewBox="0 0 196 173" fill="none" xmlns="http://www.w3.org/2000/svg">
<path d="M126.791 55.0846V14.0396H193.528V55.0846H126.791Z" fill="#FF9201"/>
<path d="M193.528 55.0844L165.655 34.2693C162.249 32.0111 157.739 31.9992 154.319 34.2372C144.741 40.5066 126.792 55.0844 126.792 55.0844H193.528Z" fill="#BCDCFF"/>
<path d="M155.412 33.6347H155.217L126.791 14.0466L126.792 55.0849C126.792 55.0849 144.741 40.5071 154.318 34.2377C154.67 34.0077 155.04 33.817 155.412 33.6347Z" fill="#A7D0FE"/>
<path d="M165.103 33.6343H164.519C164.906 33.8249 165.289 34.0275 165.653 34.2694L193.528 55.0845V14.0461L165.103 33.6343Z" fill="#A7D0FE"/>
<path d="M193.528 14.0462L165.654 34.8613C162.248 37.1195 157.738 37.1314 154.319 34.8934C144.741 28.624 126.791 14.0462 126.791 14.0462H193.528Z" fill="white"/>
<g clip-path="url(#clip0)">
<path d="M166.725 67.7556L115.667 19.6266C109.293 13.616 99.0272 13.616 92.6525 19.6266L41.5944 67.7556V144.715H166.725V67.7556Z" fill="#FF9201"/>
<rect x="59.3601" y="32.3988" width="89.6" height="112.316" rx="4" fill="white"/>
<g clip-path="url(#clip1)">
<path fill-rule="evenodd" clip-rule="evenodd" d="M76.9601 66.6194C81.1022 66.6194 84.4601 63.2615 84.4601 59.1194C84.4601 54.9772 81.1022 51.6194 76.9601 51.6194C72.8179 51.6194 69.4601 54.9772 69.4601 59.1194C69.4601 63.2615 72.8179 66.6194 76.9601 66.6194ZM76.9601 71.1194C83.5875 71.1194 88.9601 65.7468 88.9601 59.1194C88.9601 52.492 83.5875 47.1194 76.9601 47.1194C70.3327 47.1194 64.9601 52.492 64.9601 59.1194C64.9601 65.7468 70.3327 71.1194 76.9601 71.1194Z" fill="#2EC5CE"/>
<rect x="92.9601" y="52.1194" width="36" height="6" rx="0.5" fill="#2EC5CE"/>
<rect opacity="0.4" x="92.9601" y="61.1194" width="16" height="5" rx="0.5" fill="#2EC5CE"/>
</g>
<path d="M166.725 144.715L114.462 105.686C108.076 101.452 99.6204 101.43 93.2086 105.626C75.25 117.381 41.5944 144.715 41.5944 144.715H166.725Z" fill="#FFDC81"/>
<path d="M95.257 104.496H94.8909L41.5944 68.7451V144.715C41.5944 144.715 75.25 117.381 93.2063 105.626C93.8667 105.195 94.5596 104.837 95.257 104.496Z" fill="#FFCA00"/>
<path d="M113.429 104.496H112.333C113.059 104.853 113.777 105.233 114.46 105.686L166.726 144.715V68.7451L113.429 104.496Z" fill="#FFB800"/>
</g>
<path d="M2.47119 158.761V117.716H69.2077V158.761H2.47119Z" fill="#FF9201"/>
<path d="M69.2084 158.761L41.3347 137.946C37.9287 135.687 33.419 135.675 29.9994 137.913C20.4215 144.183 2.4718 158.761 2.4718 158.761H69.2084Z" fill="#BCDCFF"/>
<path d="M31.0919 137.311H30.8966L2.4707 117.723L2.4718 158.761C2.4718 158.761 20.4215 144.183 29.9982 137.914C30.3504 137.684 30.7199 137.493 31.0919 137.311Z" fill="#A7D0FE"/>
<path d="M40.7835 137.311H40.199C40.5858 137.501 40.9689 137.704 41.3335 137.946L69.2084 158.761V117.722L40.7835 137.311Z" fill="#A7D0FE"/>
<path d="M69.2079 117.722L41.3342 138.538C37.9282 140.796 33.4185 140.808 29.9989 138.57C20.421 132.3 2.47131 117.722 2.47131 117.722H69.2079Z" fill="white"/>
<ellipse cx="162.4" cy="131.755" rx="26.88" ry="25.9191" fill="white"/>
<g opacity="0.4">
<path d="M169.12 123.878C169.12 127.707 165.897 130.812 161.92 130.812C157.944 130.812 154.72 127.707 154.72 123.878C154.72 120.049 157.944 116.944 161.92 116.944C165.897 116.944 169.12 120.049 169.12 123.878Z" fill="#2EC5CE"/>
<path d="M175.84 146.528C175.84 146.528 166.782 146.614 160.96 146.528C156.259 146.458 148.96 146.528 148.96 146.528C148.96 146.528 150.88 132.661 162.4 132.661C173.92 132.661 175.84 146.528 175.84 146.528Z" fill="#2EC5CE"/>
</g>
<ellipse cx="182.56" cy="112.316" rx="11.2" ry="10.7996" fill="#2EC5CE"/>
<path fill-rule="evenodd" clip-rule="evenodd" d="M182.56 107.276C182.921 107.276 183.213 107.558 183.213 107.906V111.686H187.133C187.494 111.686 187.787 111.968 187.787 112.316C187.787 112.664 187.494 112.946 187.133 112.946H183.213V116.726C183.213 117.074 182.921 117.356 182.56 117.356C182.199 117.356 181.907 117.074 181.907 116.726V112.946H177.987C177.626 112.946 177.333 112.664 177.333 112.316C177.333 111.968 177.626 111.686 177.987 111.686H181.907V107.906C181.907 107.558 182.199 107.276 182.56 107.276Z" fill="white"/>
<defs>
<clipPath id="clip0">
<rect width="134.4" height="129.595" fill="white" transform="translate(36.96 15.1195)"/>
</clipPath>
<clipPath id="clip1">
<rect width="64" height="24" fill="white" transform="translate(64.9601 47.1194)"/>
</clipPath>
</defs>
</svg>
