<svg xmlns="http://www.w3.org/2000/svg" enable-background="new 0 0 800 600" viewBox="0 0 800 600"><linearGradient id="a" x1="447.093" x2="386.773" y1="-7.936" y2="575.159" gradientUnits="userSpaceOnUse"><stop offset="0" stop-color="#70b"/><stop offset="1" stop-color="#00008b"/><stop offset="1"/></linearGradient><path fill="url(#a)" d="M139.87,566.14c0,0-124.76-34.37-119.86-137.16c5.09-106.76,62.45-151.55,62.45-151.55
		s-16.29-58.41,9.72-111.5c29.29-59.78,108.17-122.52,243.17-134.93c177.13-16.28,224.78,23,277.12,87.4
		c60.47,74.4,15.54,207.79,15.54,207.79s81.24-6.77,127.48,59.85c68.65,98.89-25.74,175.38-25.74,175.38"/><defs><filter id="b" width="73.55" height="73.55" x="455.68" y="75.67" filterUnits="userSpaceOnUse"><feFlood flood-color="#fff" flood-opacity="1" result="back"/><feBlend in="SourceGraphic" in2="back"/></filter></defs><mask id="d" width="73.55" height="73.55" x="455.68" y="75.67" maskUnits="userSpaceOnUse"><g filter="url(#b)"><defs><filter id="c" width="73.55" height="73.55" x="455.68" y="75.67" filterUnits="userSpaceOnUse"><feFlood flood-color="#fff" flood-opacity="1" result="back"/><feBlend in="SourceGraphic" in2="back"/></filter></defs><linearGradient id="e" x1="270.276" x2="331.416" y1="278.282" y2="319.173" gradientTransform="scale(-1 1) rotate(44.854 128.14 -754.315)" gradientUnits="userSpaceOnUse"><stop offset="0" stop-color="#4d4d4d"/><stop offset=".293" stop-color="#898989"/><stop offset=".628" stop-color="#c8c8c8"/><stop offset=".873" stop-color="#f0f0f0"/><stop offset="1" stop-color="#fff"/></linearGradient><path fill="url(#e)" d="M466.38,138.38c14.33,14.4,37.61,14.46,52.01,0.13c14.4-14.32,14.46-37.61,0.13-52
			c-14.33-14.4-37.61-14.46-52.01-0.13C452.12,100.7,452.06,123.98,466.38,138.38z" mask="url(#d)"/></g></mask><linearGradient id="f" x1="270.276" x2="331.416" y1="278.282" y2="319.173" gradientTransform="scale(-1 1) rotate(44.854 128.14 -754.315)" gradientUnits="userSpaceOnUse"><stop offset="0" stop-color="#88cfda"/><stop offset=".008" stop-color="#89cfd9"/><stop offset=".478" stop-color="#c8d9bb"/><stop offset=".822" stop-color="#f0dfa7"/><stop offset="1" stop-color="#ffe1a0"/></linearGradient><path fill="url(#f)" d="M466.38,138.38c14.33,14.4,37.61,14.46,52.01,0.13c14.4-14.32,14.46-37.61,0.13-52
	c-14.33-14.4-37.61-14.46-52.01-0.13C452.12,100.7,452.06,123.98,466.38,138.38z"/><linearGradient id="g" x1="367.024" x2="342.081" y1="485.337" y2="514.288" gradientUnits="userSpaceOnUse"><stop offset="0" stop-color="#270036"/><stop offset=".594" stop-color="#4f008b"/><stop offset="1" stop-color="#4c24b1"/></linearGradient><path fill="url(#g)" d="M348.64,481.1c0,0-4.28,12.24-7.04,14.01c-2.75,1.77-16.37,8.54-16.98,11.11c-0.61,2.58-0.61,5.48-0.61,5.48
			v4.19c0,0,10.09,2.9,17.74,1.77c7.65-1.13,11.17-2.58,14.84-6.28c3.67-3.7,6.12-5.15,6.12-5.15l0.61,3.06l12.69-5.8l-0.92-8.54
			l-0.92-13.37C374.18,481.58,367.61,486.09,348.64,481.1z"/><path d="M338.24,514.75c-4.59,0.32-10.96-1.47-14.22-2.57v3.7c0,0,10.09,2.9,17.74,1.77c7.65-1.13,11.17-2.58,14.84-6.28
			c3.67-3.7,6.12-5.15,6.12-5.15l0.61,3.06l12.69-5.8l-0.67-6.26c-5.4,2.75-15.45,8.1-19.82,11.9
			C349.4,514.43,343.79,514.36,338.24,514.75z"/><linearGradient id="h" x1="432.507" x2="453.887" y1="487.109" y2="508.934" gradientUnits="userSpaceOnUse"><stop offset="0" stop-color="#270036"/><stop offset=".594" stop-color="#4f008b"/><stop offset="1" stop-color="#4c24b1"/></linearGradient><path fill="url(#h)" d="M451.27,481.1c0,0,4.28,12.24,7.04,14.01c2.75,1.77,16.37,8.54,16.98,11.11c0.61,2.58,0.61,5.48,0.61,5.48
			v4.19c0,0-10.09,2.9-17.74,1.77c-7.65-1.13-11.17-2.58-14.84-6.28c-3.67-3.7-6.12-5.15-6.12-5.15l-0.61,3.06l-12.7-5.8l0.92-8.54
			l0.92-13.37C425.73,481.58,432.3,486.09,451.27,481.1z"/><path d="M461.67 514.75c4.59.32 10.96-1.47 14.22-2.57v3.7c0 0-10.09 2.9-17.74 1.77-7.65-1.13-11.17-2.58-14.84-6.28-3.67-3.7-6.12-5.15-6.12-5.15l-.61 3.06-12.7-5.8.67-6.26c5.4 2.75 15.45 8.1 19.82 11.9C450.51 514.43 456.12 514.36 461.67 514.75zM378.87 116.75l-2.86-9.48c0 0-4.59-11.78-5.35-16.06-.77-4.28-3.98-20.04.61-29.37 3.02-6.14 12.24-7.95 19.42-8.11 6.58-.14 15.28 2.4 17.13 13.31 1.53 9.02 1.99 18.97 1.99 23.25 0 4.28-3.52 16.37-3.52 16.37l-3.23 10.38-11.87 12.67L378.87 116.75z"/><path fill="#fff" d="M370.58,70.35c1.67-0.67,1.34-11.36,16.7-9.35c15.37,2,20.71,9.02,23.72,3.67c3.01-5.35,3.34-6.01,3.34-6.01
		s-3.67-5.68-6.68-7.68c-3.98-2.65-20.38-8.69-32.74-2.34c-12.36,6.35-10.36,18.04-10.36,18.04"/><linearGradient id="i" x1="391.196" x2="391.196" y1="68.351" y2="272.829" gradientUnits="userSpaceOnUse"><stop offset="0" stop-color="#7633ff"/><stop offset=".159" stop-color="#7137ff"/><stop offset=".353" stop-color="#6243ff"/><stop offset=".568" stop-color="#4957ff"/><stop offset=".794" stop-color="#2672ff"/><stop offset="1" stop-color="#0090ff"/></linearGradient><path fill="url(#i)" d="M482.17,128.38c-1.22-4.28-49.71-44.05-49.71-44.05s-6.58,5.61-8.41,8.87c-1.83,3.26-4.89,11.17-4.89,11.17
		l27.93,19.1c0,0-26.91,5.11-29.15,4.5c-2.24-0.61-6.53-3.47-6.53-3.47l-8.36-7.75l-5.71,9.38l-6.13,3.58l-6.13-3.58l-6.21-9.18
		l-7.86,7.55c0,0-4.28,2.85-6.53,3.47c-2.24,0.61-27.29-4.17-27.29-4.17l26.07-19.44c0,0-3.06-7.9-4.89-11.17
		c-1.84-3.26-8.41-8.87-8.41-8.87s-48.49,39.77-49.71,44.05c-1.22,4.28-0.92,10.71,1.84,13.15c2.75,2.45,42.83,20.29,42.83,20.29
		s7.18,65.2,5.51,67.71c-3.26,4.89-2.14,8.05-2.14,8.05s18.41,5.05,40,6.03v0.13c0.99,0,1.97-0.01,2.94-0.03
		c0.97,0.02,1.95,0.03,2.94,0.03v-0.13c21.59-0.98,40-6.03,40-6.03s1.12-3.16-2.14-8.05c-1.67-2.51,5.51-67.71,5.51-67.71
		s40.07-17.84,42.83-20.29C483.08,139.08,483.39,132.66,482.17,128.38z"/><linearGradient id="j" x1="354.755" x2="354.755" y1="175.248" y2="247.403" gradientUnits="userSpaceOnUse"><stop offset="0" stop-color="#009aff"/><stop offset="1" stop-color="#fff"/></linearGradient><path fill="url(#j)" d="M357.89,231.37c-6.37-17.81-13.7-78.17-13.7-78.17l-1.32,7.72c1.28,0.57,2.02,0.9,2.02,0.9
		s7.18,65.2,5.51,67.71c-3.26,4.89-2.14,8.05-2.14,8.05s7.43,2.04,18.38,3.78C366.64,241.36,359.22,235.1,357.89,231.37z"/><linearGradient id="k" x1="440.13" x2="440.13" y1="102.015" y2="132.089" gradientUnits="userSpaceOnUse"><stop offset="0" stop-color="#009aff"/><stop offset="1" stop-color="#fff"/></linearGradient><polyline fill="url(#k)" points="419.15 104.36 451.09 125.47 461.11 127.81"/><linearGradient id="l" x1="342.694" x2="342.694" y1="101.981" y2="132.484" gradientUnits="userSpaceOnUse"><stop offset="0" stop-color="#009aff"/><stop offset="1" stop-color="#fff"/></linearGradient><polyline fill="url(#l)" points="363.24 104.36 332.83 126.14 322.14 128.15"/><linearGradient id="m" x1="433.35" x2="484.127" y1="161.12" y2="136.066" gradientUnits="userSpaceOnUse"><stop offset="0" stop-color="#009aff"/><stop offset="1" stop-color="#fff"/></linearGradient><path fill="url(#m)" d="M482.64,136.35c-14,9.34-44.58,18.52-44.58,18.52l-0.56,6.95c0,0,40.07-17.84,42.83-20.29
		C481.57,140.43,482.31,138.51,482.64,136.35z"/><linearGradient id="n" x1="347.779" x2="301.624" y1="158.856" y2="139.703" gradientUnits="userSpaceOnUse"><stop offset="0" stop-color="#009aff"/><stop offset="1" stop-color="#fff"/></linearGradient><path fill="url(#n)" d="M344.19,153.2c0,0-33.64-11.38-44.09-15.19c0.41,1.46,1.05,2.71,1.96,3.52c2.75,2.45,42.83,20.29,42.83,20.29
		L344.19,153.2z"/><path fill="#1a0c4d" d="M374.76,102.93c0,0-3.02,0.83-3.79-0.4c-0.76-1.22-5.51-9.48-4.44-11.62c1.07-2.14,3.82-2.14,3.82-2.14
		S373.69,101.09,374.76,102.93z"/><path fill="#fff" d="M353.38,87.23c-0.45-0.19,3.67-9.94,5.05-11.01c1.38-1.07,24.32-5.97,25.7-5.2c1.38,0.77,0.76,3.06,0.76,3.06
		s-9.33,16.06-7.34,16.06c1.99,0,4.89-0.61,6.42-1.38c1.53-0.76,4.28-2.45,5.96-1.84c1.68,0.61,1.53,1.53,0,3.06
		c-1.53,1.53-8.26,5.51-11.47,6.58c-3.21,1.07-7.34,3.06-10.25,3.52c-2.91,0.46-5.96,0.61-5.96,0.61S355.22,88,353.38,87.23z"/><linearGradient id="o" x1="351.445" x2="432.608" y1="247.374" y2="247.374" gradientUnits="userSpaceOnUse"><stop offset="0" stop-color="#270036"/><stop offset=".594" stop-color="#4f008b"/><stop offset="1" stop-color="#4c24b1"/></linearGradient><path fill="url(#o)" d="M351.45,239.52l0.82,11.42c0,0,13.46,5.91,37.73,5.91c24.27,0,42.62-5.91,42.62-5.91l-0.2-13.05
		C432.4,237.89,399.37,249.31,351.45,239.52z"/><radialGradient id="p" cx="393.25" cy="250.127" r="7.888" gradientUnits="userSpaceOnUse"><stop offset="0" stop-color="#a6ffff"/><stop offset=".199" stop-color="#a4fdff"/><stop offset=".313" stop-color="#9ff4ff"/><stop offset=".405" stop-color="#95e6ff"/><stop offset=".485" stop-color="#87d3ff"/><stop offset=".559" stop-color="#76b9ff"/><stop offset=".625" stop-color="#609aff"/><stop offset=".652" stop-color="#568bff"/></radialGradient><path fill="url(#p)" d="M402.22,255.53c0,0.68-0.55,1.22-1.22,1.22h-15.5c-0.68,0-1.22-0.55-1.22-1.22v-10.81
		c0-0.68,0.55-1.22,1.22-1.22H401c0.68,0,1.22,0.55,1.22,1.22V255.53z"/><path d="M352.26,250.94c0,0-3.69,144.91-4.94,166.96c-0.02,0.35-0.67,63.44-0.67,63.44s13.68,4.05,22.33,2.58
		c5.66-0.97,6.12-1.93,6.12-1.93l15.3-169.63l4.59-0.64l28.75,170.28c0,0,7.65,3.06,17.13,2.25c3.53-0.3,10.86-3.06,10.86-3.06
		l-19.12-230.24C432.61,250.94,392.74,263.08,352.26,250.94z"/><polygon fill="#fff" points="370.99 124.5 365.07 127.65 377.85 126.13 391.2 129.71 379.1 116.87"/><polygon fill="#fff" points="391.38 129.48 403.04 125.32 418.19 128.23 411.42 124.3 403.04 116.75"/><path fill="#1a0c4d" d="M407.83,100.54c-0.18,0.42,3.06,0.92,3.82-1.84c0.76-2.75,2.45-8.11,1.99-10.09
		c-0.46-1.99-3.82-1.38-3.82-1.38S409.05,97.63,407.83,100.54z"/><path fill="#fff" d="M429.04,87.23c0.45-0.19-3.67-9.94-5.05-11.01c-1.38-1.07-24.32-5.97-25.7-5.2c-1.38,0.77-0.76,3.06-0.76,3.06
		s9.33,16.06,7.34,16.06c-1.99,0-4.89-0.61-6.42-1.38c-1.53-0.76-4.28-2.45-5.97-1.84c-1.68,0.61-1.53,1.53,0,3.06
		c1.53,1.53,8.26,5.51,11.47,6.58c3.21,1.07,7.34,3.06,10.25,3.52c2.91,0.46,5.97,0.61,5.97,0.61S427.2,88,429.04,87.23z"/><linearGradient id="q" x1="392.231" x2="404.873" y1="81.983" y2="81.983" gradientUnits="userSpaceOnUse"><stop offset="0" stop-color="#009aff"/><stop offset="1" stop-color="#fff"/></linearGradient><path fill="url(#q)" d="M399.47,73.83l-6.32,2.65c0,0-0.92,2.86-0.92,5.1c0,2.24,0.71,5.4,0.71,5.4l11.93,3.16
		C404.87,90.14,394.88,84.63,399.47,73.83z"/><linearGradient id="r" x1="377.751" x2="390.394" y1="81.983" y2="81.983" gradientUnits="userSpaceOnUse"><stop offset="0" stop-color="#009aff"/><stop offset="1" stop-color="#fff"/></linearGradient><path fill="url(#r)" d="M383.15,73.83l6.32,2.65c0,0,0.92,2.86,0.92,5.1c0,2.24-0.71,5.4-0.71,5.4l-11.93,3.16
		C377.75,90.14,387.74,84.63,383.15,73.83z"/><linearGradient id="s" x1="388.152" x2="394.678" y1="81.065" y2="81.065" gradientUnits="userSpaceOnUse"><stop offset="0" stop-color="#009aff"/><stop offset="1" stop-color="#fff"/></linearGradient><rect width="6.53" height="10.4" x="388.15" y="75.86" fill="url(#s)"/><linearGradient id="t" x1="388.152" x2="394.27" y1="79.026" y2="79.026" gradientUnits="userSpaceOnUse"><stop offset="0" stop-color="#009aff"/><stop offset="1" stop-color="#fff"/></linearGradient><path fill="url(#t)" d="M388.15,79.03c0-1.69,1.37-3.06,3.06-3.06c1.69,0,3.06,1.37,3.06,3.06c0,1.69-1.37,3.06-3.06,3.06
		C389.52,82.08,388.15,80.72,388.15,79.03z"/><linearGradient id="u" x1="348.474" x2="384.652" y1="80.471" y2="80.471" gradientUnits="userSpaceOnUse"><stop offset="0" stop-color="#361a31"/><stop offset=".513" stop-color="#3b1868"/><stop offset="1" stop-color="#1d0038"/></linearGradient><path fill="url(#u)" d="M348.47,80.47c0-9.99,8.1-18.09,18.09-18.09c9.99,0,18.09,8.1,18.09,18.09s-8.1,18.09-18.09,18.09
		C356.57,98.56,348.47,90.46,348.47,80.47z"/><linearGradient id="v" x1="363.724" x2="366.512" y1="124.01" y2="81.258" gradientUnits="userSpaceOnUse"><stop offset="0" stop-color="#1dacff"/><stop offset=".112" stop-color="#20a9fb"/><stop offset=".226" stop-color="#28a0ef"/><stop offset=".342" stop-color="#3690da"/><stop offset=".458" stop-color="#497bbe"/><stop offset=".574" stop-color="#625f99"/><stop offset=".585" stop-color="#655c95"/><stop offset=".637" stop-color="#6f5f91"/><stop offset=".723" stop-color="#896886"/><stop offset=".834" stop-color="#b37774"/><stop offset=".963" stop-color="#ed8c5c"/><stop offset="1" stop-color="#ff9254"/></linearGradient><path fill="url(#v)" d="M353.14,80.47c0-7.41,6.01-13.42,13.42-13.42c7.41,0,13.42,6.01,13.42,13.42c0,7.41-6.01,13.42-13.42,13.42
		C359.15,93.89,353.14,87.88,353.14,80.47z"/><linearGradient id="w" x1="398.137" x2="434.315" y1="81.584" y2="81.584" gradientUnits="userSpaceOnUse"><stop offset="0" stop-color="#361a31"/><stop offset=".513" stop-color="#3b1868"/><stop offset="1" stop-color="#1d0038"/></linearGradient><path fill="url(#w)" d="M398.14,81.58c0-9.99,8.1-18.09,18.09-18.09c9.99,0,18.09,8.1,18.09,18.09s-8.1,18.09-18.09,18.09
		C406.24,99.67,398.14,91.57,398.14,81.58z"/><linearGradient id="x" x1="413.248" x2="416.036" y1="127.239" y2="84.488" gradientUnits="userSpaceOnUse"><stop offset="0" stop-color="#1dacff"/><stop offset=".112" stop-color="#20a9fb"/><stop offset=".226" stop-color="#28a0ef"/><stop offset=".342" stop-color="#3690da"/><stop offset=".458" stop-color="#497bbe"/><stop offset=".574" stop-color="#625f99"/><stop offset=".585" stop-color="#655c95"/><stop offset=".637" stop-color="#6f5f91"/><stop offset=".723" stop-color="#896886"/><stop offset=".834" stop-color="#b37774"/><stop offset=".963" stop-color="#ed8c5c"/><stop offset="1" stop-color="#ff9254"/></linearGradient><path fill="url(#x)" d="M402.8,81.58c0-7.41,6.01-13.42,13.42-13.42c7.41,0,13.42,6.01,13.42,13.42c0,7.41-6.01,13.42-13.42,13.42
		C408.81,95.01,402.8,89,402.8,81.58z"/><linearGradient id="y" x1="390.077" x2="392.081" y1="131.819" y2="242.057" gradientUnits="userSpaceOnUse"><stop offset="0" stop-color="#a1baff"/><stop offset=".433" stop-color="#fff"/></linearGradient><polyline fill="url(#y)" points="391.38 129.48 394.94 164.53 391.74 208.21 395.75 242.95 391.2 243.72 387.2 208.18 390.4 165 386.84 128.48 391.38 129.48"/><linearGradient id="z" x1="625.891" x2="265.932" y1="562.63" y2="560.684" gradientUnits="userSpaceOnUse"><stop offset="0" stop-color="#aebdf0"/><stop offset=".207" stop-color="#acb8f1"/><stop offset=".462" stop-color="#a6a9f4"/><stop offset=".741" stop-color="#9c90f9"/><stop offset="1" stop-color="#9072ff"/></linearGradient><ellipse cx="414.28" cy="561.49" fill="url(#z)" rx="157.07" ry="13.39"/><g><linearGradient id="A" x1="403.096" x2="405.411" y1="541.729" y2="557.931" gradientUnits="userSpaceOnUse"><stop offset="0" stop-color="#270036"/><stop offset=".594" stop-color="#4f008b"/><stop offset="1" stop-color="#4c24b1"/></linearGradient><path fill="url(#A)" d="M325.26,559.45l3.46-11.57c0,0,0.8-3.59,7.85-3.59c7.05,0,137.66,0,137.66,0s6.52-0.29,8.38,4.52
		c2.48,6.39,3.19,9.58,3.19,9.58s2.26,4.92-6.12,4.92c-8.38,0-150.69,0-150.69,0S325.26,563.57,325.26,559.45z"/><linearGradient id="B" x1="325.257" x2="486.07" y1="561.377" y2="561.377" gradientUnits="userSpaceOnUse"><stop offset="0" stop-color="#a1baff"/><stop offset="1" stop-color="#fff"/></linearGradient><path fill="url(#B)" d="M328.98,563.3c0,0,142.31,0,150.69,0c5.87,0,6.52-2.41,6.38-3.86h-160.8
		C325.26,563.57,328.98,563.3,328.98,563.3z"/><linearGradient id="C" x1="404.883" x2="404.883" y1="522.673" y2="303.945" gradientUnits="userSpaceOnUse"><stop offset="0" stop-color="#270036"/><stop offset=".594" stop-color="#4f008b"/><stop offset="1" stop-color="#4c24b1"/></linearGradient><path fill="url(#C)" d="M571.4,510.37c0,8.81-7.15,15.96-15.96,15.96H254.32c-8.81,0-15.96-7.15-15.96-15.96V319.55
		c0-8.81,7.15-15.96,15.96-15.96h301.12c8.82,0,15.96,7.15,15.96,15.96V510.37z"/><linearGradient id="D" x1="405.769" x2="405.769" y1="498.372" y2="315.745" gradientUnits="userSpaceOnUse"><stop offset="0" stop-color="#7633ff"/><stop offset=".216" stop-color="#4e53ff"/><stop offset=".436" stop-color="#2c6dff"/><stop offset=".646" stop-color="#1480ff"/><stop offset=".839" stop-color="#058cff"/><stop offset="1" stop-color="#0090ff"/></linearGradient><rect width="302.18" height="172.02" x="254.68" y="319.2" fill="url(#D)"/><linearGradient id="E" x1="345.607" x2="460.449" y1="457.11" y2="457.11" gradientUnits="userSpaceOnUse"><stop offset="0" stop-color="#270036"/><stop offset=".594" stop-color="#4f008b"/><stop offset="1" stop-color="#4c24b1"/></linearGradient><path fill="url(#E)" d="M460.45,463.58c0,7.67-6.22,13.89-13.89,13.89h-87.07c-7.67,0-13.89-6.22-13.89-13.89v-12.94
		c0-7.67,6.22-13.89,13.89-13.89h87.07c7.67,0,13.89,6.22,13.89,13.89V463.58z"/><linearGradient id="F" x1="345.607" x2="460.449" y1="453.762" y2="453.762" gradientUnits="userSpaceOnUse"><stop offset="0" stop-color="#e19000"/><stop offset=".207" stop-color="#e39504"/><stop offset=".462" stop-color="#e9a410"/><stop offset=".741" stop-color="#f3bd23"/><stop offset="1" stop-color="#ffdb3b"/></linearGradient><path fill="url(#F)" d="M460.45,460.23c0,7.67-6.22,13.89-13.89,13.89h-87.07c-7.67,0-13.89-6.22-13.89-13.89v-12.94
		c0-7.67,6.22-13.89,13.89-13.89h87.07c7.67,0,13.89,6.22,13.89,13.89V460.23z"/><text fill="#fff" font-family="MyriadPro-Bold" font-size="36.419" transform="translate(371.834 466.325)">BUY</text><path fill="none" stroke="#231f20" stroke-linecap="round" stroke-linejoin="round" stroke-miterlimit="10" stroke-width="3.898" d="M400.63,502.57c0-2.35,1.91-4.26,4.26-4.26c2.35,0,4.26,1.91,4.26,4.26c0,2.35-1.91,4.26-4.26,4.26
		C402.53,506.82,400.63,504.92,400.63,502.57z"/><linearGradient id="G" x1="238.428" x2="571.337" y1="519.058" y2="519.058" gradientUnits="userSpaceOnUse"><stop offset="0" stop-color="#a1baff"/><stop offset="1" stop-color="#fff"/></linearGradient><path fill="url(#G)" d="M238.43,511.79c0.72,8.15,7.56,14.54,15.89,14.54h301.12c8.34,0,15.18-6.39,15.89-14.54H238.43z"/><linearGradient id="H" x1="390.962" x2="420.222" y1="538.432" y2="538.432" gradientUnits="userSpaceOnUse"><stop offset="0" stop-color="#270036"/><stop offset=".594" stop-color="#4f008b"/><stop offset="1" stop-color="#4c24b1"/></linearGradient><rect width="29.26" height="24.21" x="390.96" y="526.33" fill="url(#H)"/><linearGradient id="I" x1="379.523" x2="446.69" y1="354.58" y2="354.58" gradientUnits="userSpaceOnUse"><stop offset="0" stop-color="#a1baff"/><stop offset="1" stop-color="#fff"/></linearGradient><path fill="url(#I)" d="M446.69,354.58c0,3.75-3.04,6.78-6.78,6.78h-53.6c-3.75,0-6.78-3.04-6.78-6.78l0,0
			c0-3.75,3.04-6.78,6.78-6.78h53.6C443.65,347.8,446.69,350.83,446.69,354.58L446.69,354.58z"/><linearGradient id="J" x1="384.71" x2="442.434" y1="372.602" y2="372.602" gradientUnits="userSpaceOnUse"><stop offset="0" stop-color="#a1baff"/><stop offset="1" stop-color="#fff"/></linearGradient><path fill="url(#J)" d="M442.43,372.6c0,4-3.25,7.25-7.25,7.25h-43.23c-4,0-7.25-3.25-7.25-7.25l0,0c0-4,3.25-7.25,7.25-7.25h43.23
			C439.19,365.35,442.43,368.6,442.43,372.6L442.43,372.6z"/><linearGradient id="K" x1="376.331" x2="396.016" y1="412.104" y2="412.104" gradientUnits="userSpaceOnUse"><stop offset="0" stop-color="#a1baff"/><stop offset="1" stop-color="#fff"/></linearGradient><path fill="url(#K)" d="M376.33,412.1c0-5.47,4.41-9.91,9.84-9.91l0,0c5.44,0,9.84,4.44,9.84,9.91l0,0c0,5.47-4.41,9.91-9.84,9.91
			l0,0C380.74,422.01,376.33,417.58,376.33,412.1L376.33,412.1z"/><linearGradient id="L" x1="411.311" x2="430.995" y1="412.104" y2="412.104" gradientUnits="userSpaceOnUse"><stop offset="0" stop-color="#a1baff"/><stop offset="1" stop-color="#fff"/></linearGradient><path fill="url(#L)" d="M411.31,412.1c0-5.47,4.41-9.91,9.84-9.91l0,0c5.44,0,9.84,4.44,9.84,9.91l0,0c0,5.47-4.41,9.91-9.84,9.91
			l0,0C415.72,422.01,411.31,417.58,411.31,412.1L411.31,412.1z"/><linearGradient id="M" x1="345.607" x2="438.045" y1="369.077" y2="369.077" gradientUnits="userSpaceOnUse"><stop offset="0" stop-color="#a1baff"/><stop offset="1" stop-color="#fff"/></linearGradient><path fill="url(#M)" d="M360.37,354.58h-7.71c0,0-7.05,0-7.05-7.05c0-4.79,3.72-7.18,7.38-7.18c3.66,0,13.5,0,13.5,0
			s4.92-0.12,6.92,8.11c2.37,9.79,9.44,34.71,9.44,34.71H431c0,0,7.05,0.27,7.05,6.92c0,6.65-5.99,7.71-5.99,7.71h-54.53
			c0,0-5.59-0.27-6.52-5.19C370.08,387.7,360.37,354.58,360.37,354.58z"/></g><linearGradient id="N" x1="738.501" x2="594.568" y1="554.436" y2="553.658" gradientUnits="userSpaceOnUse"><stop offset="0" stop-color="#aebdf0"/><stop offset=".207" stop-color="#acb8f1"/><stop offset=".462" stop-color="#a6a9f4"/><stop offset=".741" stop-color="#9c90f9"/><stop offset="1" stop-color="#9072ff"/></linearGradient><path fill="url(#N)" d="M716.69,553.98c0,4.13-28.12,7.48-62.8,7.48c-34.69,0-62.8-3.35-62.8-7.48c0-4.13,28.12-7.48,62.8-7.48
	C688.57,546.5,716.69,549.85,716.69,553.98z"/><g><path fill="#fff" d="M720.68,353.82c0,0,1.74-3.24,2.02-3.73c0.28-0.49,1.69-1.18,3.37-1.83c1.68-0.65,4.25-0.78,4.51-0.6
		c0.25,0.18,0.59,0.24,0.87,1c0.27,0.75,0.09,1.54,0.09,1.54s0.77,0.77,0.47,1.72c0,0,0.69,0.76,0.17,1.78c0,0,0.65,0.76,0.22,1.47
		c0,0-1.41,0.69-1.86,1.1c-0.45,0.41-3.48,1.65-6.57,2.39C723.96,358.67,720.8,358.39,720.68,353.82z"/><path fill="#23344a" d="M728.78,357.13c-0.14,0.06-0.28,0.11-0.43,0.17c-0.08,0.03-0.15,0.06-0.23,0.09
		c-0.08,0.03-0.15,0.06-0.23,0.09c0.11,0.38,0.22,0.72,0.33,1.02l0.99-0.03v0C729.08,358.11,728.93,357.65,728.78,357.13z
		 M728.03,354.66c0.11,0.22,0.2,0.45,0.29,0.67c0.02,0.06,0.04,0.11,0.06,0.16c0.02,0.06,0.04,0.12,0.06,0.17
		c-0.21-1.08-0.33-2.3-0.21-3.5c-0.01,0.03-0.02,0.06-0.04,0.09c-0.01,0.01-0.01,0.02-0.02,0.03c-0.01,0.01-0.01,0.02-0.02,0.03
		c0,0-0.01,0.01-0.01,0.01c-0.01,0.01-0.02,0.02-0.02,0.03c0,0-0.01,0.01-0.01,0.01c-0.01,0.01-0.02,0.02-0.03,0.03
		c-0.06,0.06-0.13,0.12-0.21,0.17c-0.01,0.01-0.03,0.02-0.05,0.03c-0.08,0.04-0.16,0.08-0.26,0.12c-0.02,0.01-0.04,0.02-0.07,0.03
		c0,0,0,0-0.01,0c-0.02,0.01-0.05,0.01-0.07,0.02c-0.02,0.01-0.04,0.01-0.06,0.02c-0.03,0.01-0.07,0.02-0.1,0.03c0,0,0,0,0,0
		c-0.01,0.2-0.01,0.4,0,0.59v0c0.01,0.01,0.01,0.01,0.02,0.02c0.03,0.03,0.06,0.07,0.09,0.1c0.03,0.04,0.05,0.07,0.08,0.11
		c0.04,0.05,0.08,0.11,0.11,0.16c0.03,0.04,0.05,0.08,0.08,0.12c0.01,0.01,0.01,0.02,0.02,0.02c0.03,0.04,0.06,0.09,0.08,0.14
		c0.09,0.14,0.17,0.29,0.24,0.44C727.98,354.56,728,354.61,728.03,354.66z M748.12,358.17l-0.05-0.26l-0.26-1.49
		c-0.02-0.08-0.39-1.89-1.38-4.08c-0.93-2.04-2.6-4.79-5.27-6.34c-1.73-1-3.67-1.38-5.79-1.14c-0.88,0.1-1.8,0.31-2.75,0.63
		c-1.05,0.35-1.96,0.84-2.7,1.44c-0.27,0.22-0.52,0.45-0.75,0.7c-0.28,0.3-0.52,0.62-0.74,0.97c-0.19,0.31-0.36,0.63-0.51,0.97
		c-0.21,0.49-0.37,1-0.47,1.52c-0.12,0.57-0.18,1.15-0.2,1.73c-0.01,0.2-0.01,0.4,0,0.59v0c0.01,0.66,0.08,1.3,0.17,1.91
		c0.06,0.37,0.13,0.73,0.21,1.08c0.09,0.38,0.18,0.74,0.28,1.08c0.11,0.38,0.22,0.72,0.33,1.02c0.01,0.02,0.01,0.04,0.02,0.06
		c0.16,0.46,0.31,0.81,0.39,0.99c0.04,0.08,0.06,0.13,0.07,0.15l0.15,0.32l9.71-0.22l9.8-0.22L748.12,358.17z M746.41,359.12
		l-3.7-0.03l-13.3-0.11c-0.05-0.11-0.1-0.26-0.16-0.42c-0.01-0.03-0.02-0.06-0.03-0.09v0c-0.13-0.35-0.28-0.81-0.43-1.33
		c-0.02-0.08-0.05-0.16-0.07-0.25c-0.05-0.18-0.1-0.37-0.14-0.57c-0.05-0.21-0.09-0.43-0.14-0.65c0,0,0,0,0,0
		c-0.21-1.08-0.33-2.3-0.21-3.5c0,0,0,0,0,0c0.01-0.08,0.02-0.16,0.03-0.24v-0.01c0.09-0.68,0.25-1.35,0.52-1.98
		c0.38-0.87,0.93-1.62,1.66-2.22c0,0,0,0,0,0c0.02-0.02,0.05-0.04,0.07-0.06c0.66-0.53,1.46-0.96,2.4-1.27
		c0.74-0.25,1.47-0.43,2.17-0.53c2.07-0.31,3.95,0.01,5.6,0.97c0.63,0.36,1.22,0.84,1.78,1.4c0,0,0,0,0,0
		c2.59,2.6,4.39,6.95,4.94,9.71c0.02,0.12,0.05,0.23,0.06,0.35v0c0.05,0.31,0.09,0.6,0.1,0.85L746.41,359.12z M728.23,352.16
		c-0.01,0.03-0.02,0.06-0.04,0.09c-0.01,0.01-0.01,0.02-0.02,0.03c-0.01,0.01-0.01,0.02-0.02,0.03c0,0-0.01,0.01-0.01,0.01
		c-0.01,0.01-0.02,0.02-0.02,0.03c0,0-0.01,0.01-0.01,0.01c-0.01,0.01-0.02,0.02-0.03,0.03c-0.06,0.06-0.13,0.12-0.21,0.17
		c-0.01,0.01-0.03,0.02-0.05,0.03c-0.08,0.04-0.16,0.08-0.26,0.12c-0.02,0.01-0.04,0.02-0.07,0.03c0,0,0,0-0.01,0
		c-0.02,0.01-0.05,0.01-0.07,0.02c-0.02,0.01-0.04,0.01-0.06,0.02c-0.03,0.01-0.07,0.02-0.1,0.03c0,0,0,0,0,0
		c-0.01,0.2-0.01,0.4,0,0.59v0c0.01,0.01,0.01,0.01,0.02,0.02c0.03,0.03,0.06,0.07,0.09,0.1c0.03,0.04,0.05,0.07,0.08,0.11
		c0.04,0.05,0.08,0.11,0.11,0.16c0.03,0.04,0.05,0.08,0.08,0.12c0.01,0.01,0.01,0.02,0.02,0.02c0.03,0.04,0.06,0.09,0.08,0.14
		c0.09,0.14,0.17,0.29,0.24,0.44c0.02,0.05,0.05,0.1,0.07,0.15c0.11,0.22,0.2,0.45,0.29,0.67c0.02,0.06,0.04,0.11,0.06,0.16
		c0.02,0.06,0.04,0.12,0.06,0.17C728.23,354.58,728.11,353.36,728.23,352.16z M728.78,357.13c-0.14,0.06-0.28,0.11-0.43,0.17
		c-0.08,0.03-0.15,0.06-0.23,0.09c-0.08,0.03-0.15,0.06-0.23,0.09c0.11,0.38,0.22,0.72,0.33,1.02l0.99-0.03
		C729.08,358.11,728.93,357.65,728.78,357.13z"/><polygon points="769.7 399.78 723.73 405.76 715.94 363.67 763.99 355.45"/><path fill="#23344a" d="M746.41,359.12l0-0.06c0-0.03-0.01-0.24-0.04-0.6c-0.01-0.15-0.03-0.31-0.05-0.5
		c-0.09-0.82-0.28-2.02-0.64-3.38c-0.51-1.89-1.46-4.38-3.2-6.36c0,0,0,0,0,0c-0.36-0.41-0.76-0.8-1.19-1.16
		c-1.65-1.36-3.63-2.09-5.91-2.19c-0.92-0.04-1.89,0.02-2.9,0.18c-2.26,0.36-4.01,1.33-5.21,2.87c-0.14,0.18-0.27,0.37-0.4,0.56
		c-0.42,0.65-0.73,1.35-0.96,2.07c-0.22,0.67-0.36,1.36-0.45,2.05c-0.01,0.11-0.03,0.23-0.04,0.34c-0.01,0.12-0.02,0.24-0.03,0.36v0
		c-0.03,0.46-0.05,0.92-0.05,1.36v0c0,0.15,0,0.3,0.01,0.44c0.04,1.26,0.21,2.36,0.35,3.1c0.03,0.13,0.05,0.25,0.07,0.36v0
		c0.07,0.35,0.13,0.57,0.15,0.61l0.1,0.36l2.61,0.01l11.3,0.02h0l6.5,0.01L746.41,359.12z M728.24,358.55l-1.45,0
		c0-0.01,0-0.01,0-0.01v0c-0.04-0.16-0.08-0.38-0.13-0.63v0c-0.1-0.54-0.21-1.28-0.27-2.11c-0.04-0.52-0.06-1.08-0.04-1.66
		c0.01-0.4,0.04-0.81,0.08-1.22c0.01-0.06,0.01-0.11,0.02-0.17c0.06-0.51,0.16-1.02,0.29-1.52c0.01-0.03,0.01-0.05,0.02-0.08
		c0.03-0.1,0.06-0.2,0.09-0.3c0.2-0.64,0.48-1.26,0.84-1.82c0.01-0.02,0.03-0.04,0.04-0.07c0.32-0.49,0.7-0.92,1.13-1.29
		c0.32-0.28,0.67-0.52,1.05-0.73c0.78-0.44,1.68-0.74,2.71-0.9c0.86-0.14,1.68-0.2,2.46-0.18c2.16,0.06,4.03,0.72,5.56,1.98
		c3.43,2.81,4.4,7.92,4.68,10.16c0.03,0.23,0.05,0.43,0.06,0.6l-16.14-0.03L728.24,358.55z"/><linearGradient id="O" x1="708.957" x2="763.119" y1="381.995" y2="381.995" gradientUnits="userSpaceOnUse"><stop offset="0" stop-color="#7633ff"/><stop offset=".159" stop-color="#7137ff"/><stop offset=".353" stop-color="#6243ff"/><stop offset=".568" stop-color="#4957ff"/><stop offset=".794" stop-color="#2672ff"/><stop offset="1" stop-color="#0090ff"/></linearGradient><polygon fill="url(#O)" points="762.61 406.52 708.96 402.39 713.27 358.93 763.12 357.47"/><path fill="#fff" d="M612.76,382.47c0,0,0.44-3.65,0.49-4.21c0.05-0.56-0.71-1.93-1.71-3.43c-1-1.5-3.03-3.08-3.34-3.08
		c-0.31,0-0.63-0.14-1.28,0.32c-0.65,0.46-0.95,1.21-0.95,1.21s-1.07,0.19-1.37,1.14c0,0-1,0.22-1.17,1.36c0,0-0.97,0.24-1.02,1.08
		c0,0,0.76,1.38,0.89,1.97c0.13,0.59,1.9,3.35,4,5.73C607.29,384.55,610.04,386.13,612.76,382.47z"/><path fill="#23344a" d="M618.68,387.51c0.45-3.41-0.01-7.73-2.25-10.35c-2.04-2.38-5.16-2.84-8.23-2.35
		c-2.38,0.38-4.22,1.42-5.59,2.91c-2.88,3.12-3.65,8.35-3.22,12.52L618.68,387.51z M600.25,389.17c0-0.08-0.01-0.17-0.01-0.27
		c-0.07-1.97,0.06-7.26,3.07-10.53c1.37-1.48,3.11-2.31,5.08-2.62c2.74-0.43,5.53-0.07,7.33,2.03c1.91,2.21,2.38,5.99,2.12,8.9
		L600.25,389.17z"/><linearGradient id="P" x1="578.807" x2="590.183" y1="414.433" y2="414.433" gradientUnits="userSpaceOnUse"><stop offset="0" stop-color="#270036"/><stop offset=".594" stop-color="#4f008b"/><stop offset="1" stop-color="#4c24b1"/></linearGradient><polygon fill="url(#P)" points="578.81 437.08 582.33 391.79 590.18 436.45 584.75 435.5"/><linearGradient id="Q" x1="582.202" x2="636.849" y1="410.611" y2="410.611" gradientUnits="userSpaceOnUse"><stop offset="0" stop-color="#7633ff"/><stop offset=".159" stop-color="#7137ff"/><stop offset=".353" stop-color="#6243ff"/><stop offset=".568" stop-color="#4957ff"/><stop offset=".794" stop-color="#2672ff"/><stop offset="1" stop-color="#0090ff"/></linearGradient><polygon fill="url(#Q)" points="590.18 436.45 636.85 428.24 629.21 384.77 582.2 391.46"/><path fill="#23344a" d="M640.03,404.42c1-2.26,1.63-5.08,0.83-7.43c-0.61-1.78-1.94-2.95-3.65-3.67l-0.3,0.72
		c1.64,0.69,2.72,1.77,3.22,3.21c0.77,2.22,0.04,5.02-0.92,7.12L640.03,404.42z"/><linearGradient id="R" x1="605.729" x2="650.48" y1="422.214" y2="422.214" gradientUnits="userSpaceOnUse"><stop offset="0" stop-color="#a1baff"/><stop offset="1" stop-color="#fff"/></linearGradient><polygon fill="url(#R)" points="605.73 438.18 643.97 443.16 650.48 408.11 610.5 401.27"/><linearGradient id="S" x1="597.938" x2="610.472" y1="419.627" y2="419.627" gradientUnits="userSpaceOnUse"><stop offset="0" stop-color="#a1baff"/><stop offset="1" stop-color="#fff"/></linearGradient><polygon fill="url(#S)" points="597.94 437.08 610.47 401.3 605.73 437.96 601.67 436.45"/><path fill="#23344a" d="M642.21,403.94c0.26-1.08,1.16-5.55-0.84-8.66l-0.7,0.44c0.11,0.17,0.21,0.34,0.3,0.52
		c1.36,2.69,0.69,6.34,0.45,7.41L642.21,403.94z"/><linearGradient id="T" x1="601.669" x2="611.628" y1="423.673" y2="423.673" gradientUnits="userSpaceOnUse"><stop offset="0" stop-color="#270036"/><stop offset=".594" stop-color="#4f008b"/><stop offset="1" stop-color="#4c24b1"/></linearGradient><polygon fill="url(#T)" points="601.67 442.44 610.18 403.78 611.63 443.57 606.99 441.79"/><path fill="#eea886" d="M607.29,384.55c0,0,2.86,2.54,4.34,2.59c1.47,0.05,2.23-4,2.23-4l-1.27-2.48L607.29,384.55z"/><path fill="#fff" d="M718.73,356.13c0,0,1.43-1.35,2.06-2.52c0.63-1.17,3.48,5,3.48,5s-3.55,0.15-5.12,1.25
		C717.59,360.96,718.73,356.13,718.73,356.13z"/><linearGradient id="U" x1="725.351" x2="732.529" y1="352.034" y2="352.034" gradientUnits="userSpaceOnUse"><stop offset="0" stop-color="#a1baff"/><stop offset="1" stop-color="#fff"/></linearGradient><path fill="url(#U)" d="M730.12,347.83c0,0-4.23,1.75-4.03,2.47c0.2,0.72,0.71,0.86,0.71,0.86l-1.41,1.51c0,0-0.37,1.53,1.4,1.49
		c0,0-0.49,1.39,1.21,1.15c0,0,0.08,1.06,0.9,1.09c0.81,0.03,3.49-1.22,3.49-1.22s0.45-0.52-0.22-1.47c0,0,0.55-0.95-0.17-1.78
		c0,0,0.32-0.83-0.47-1.72c0,0,0.58-1.91-0.95-2.53C730.57,347.67,730.3,347.75,730.12,347.83z"/><path fill="#fff" d="M722.82,350.03c0,0,3.13,0.25,4.78,1.14c0.37,0.2,0.7,0.46,0.65,0.89c-0.05,0.42-0.72,0.89-2.08,0.85
		c-1.36-0.04-3.14,0.53-3.14,0.53S721.64,352.99,722.82,350.03z"/><linearGradient id="V" x1="602.401" x2="610.441" y1="375.846" y2="375.846" gradientUnits="userSpaceOnUse"><stop offset="0" stop-color="#a1baff"/><stop offset="1" stop-color="#fff"/></linearGradient><path fill="url(#V)" d="M608.47,372.14c0,0,2.45,3.87,1.88,4.34c-0.57,0.47-1.07,0.3-1.07,0.3l0.29,2.05c0,0-0.58,1.46-2,0.41
		c0,0-0.4,1.42-1.65,0.24c0,0-0.68,0.82-1.36,0.38c-0.68-0.44-2.15-3-2.15-3s-0.07-0.68,1.02-1.08c0,0,0.09-1.1,1.17-1.36
		c0,0,0.21-0.87,1.37-1.14c0,0,0.62-1.89,2.23-1.53C608.2,371.76,608.37,371.97,608.47,372.14z"/><path fill="#fff" d="M613.19,378.14c0,0-2.71-1.59-4.57-1.81c-0.42-0.05-0.84-0.02-1.04,0.35c-0.21,0.37,0.07,1.14,1.21,1.89
		c1.14,0.75,2.26,2.24,2.26,2.24S612.45,381.23,613.19,378.14z"/><linearGradient id="W" x1="647.416" x2="666.673" y1="545.204" y2="545.204" gradientUnits="userSpaceOnUse"><stop offset="0" stop-color="#270036"/><stop offset=".594" stop-color="#4f008b"/><stop offset="1" stop-color="#4c24b1"/></linearGradient><path fill="url(#W)" d="M663.42,547.19c-2.19,0.66-2.85,4.38-4.71,5.47c-1.86,1.09-10.95,1.86-11.28-0.99
		c-0.33-2.85,3.81-5.4,5.67-6.82c1.86-1.42,6.04-6.1,6.89-7.96c0,0,0.75,1.19,2.98,0.82c2.23-0.37,2.6-0.96,2.6-0.96
		c-0.08,2.2,0.69,3.77,0.91,4.62C667.25,544.34,665.61,546.53,663.42,547.19z"/><linearGradient id="X" x1="664.11" x2="681.404" y1="545.29" y2="545.29" gradientUnits="userSpaceOnUse"><stop offset="0" stop-color="#270036"/><stop offset=".594" stop-color="#4f008b"/><stop offset="1" stop-color="#4c24b1"/></linearGradient><path fill="url(#X)" d="M678.26,547.7c-1.69,1.54-2.01,3.99-3.87,5.09c-0.54,0.32-1.6,0.63-2.85,0.86c-2.27,0.41-5.15,0.49-6.57-0.33
		c-0.48-0.28-0.79-0.66-0.85-1.18c-0.33-2.85,3.89-6.03,5.75-7.46c1.15-0.87,2.33-2.91,3.28-4.78c0.59-1.17,1.08-2.27,1.41-2.99
		c0,0,0,0,0,0c0.01,0.01,0.11,0.21,0.38,0.4c0.38,0.27,1.11,0.55,2.39,0.34c1.78-0.29,2.47-0.76,2.67-0.94
		c0.01-0.01,0.02-0.02,0.03-0.03c0.01-0.01,0.02-0.02,0.03-0.03c0,0,0.01-0.01,0.01-0.01c0,0,0,0,0.01-0.01c0,0,0,0,0,0c0,0,0,0,0,0
		c0.37,1.78,0.94,3.6,1.16,4.45C682.01,544.05,679.86,546.24,678.26,547.7z"/><path d="M662.2,323c0,0,7.11-0.74,9.67,6.12c2.56,6.87,4.97,9.11,5.28,12.72c1.22,14.59,8.03,11.29,6.12,19.7
		c-1.92,8.41-3.24,9.68-3.24,9.68l-16.29-3.19l-16.5,0.05c0,0,6.46-3.22,5.02-10.09c-1.44-6.87-5.02-18.12-3-25.78
		C651.28,324.54,657.95,323.59,662.2,323z"/><linearGradient id="Y" x1="610.215" x2="653.649" y1="423.579" y2="423.579" gradientUnits="userSpaceOnUse"><stop offset="0" stop-color="#e19000"/><stop offset=".207" stop-color="#e39504"/><stop offset=".462" stop-color="#e9a410"/><stop offset=".741" stop-color="#f3bd23"/><stop offset="1" stop-color="#ffdb3b"/></linearGradient><polygon fill="url(#Y)" points="611.63 443.57 652.89 442.12 653.65 403.59 610.21 403.59"/><polygon fill="#00759f" points="780.51 396.7 763.99 355.45 769.7 399.78 774.51 396.96"/><polygon fill="#a600a9" points="774.57 405.17 763.12 357.47 762.61 406.52 768.18 404.39"/><path fill="#fff" d="M650.46,420.9c0,0-5.99,20.88-7.04,26.21c-1.04,5.33-3.97,31.14-4.28,35.53c-0.31,4.39,9.78,24.97,10.33,26.45
		c2.13,5.75,10.84,26.58,10.84,26.58s5.63,3.34,5-1.55c-1.91-14.87-2.81-18.55-4.15-26.27c-2.93-16.91-8.99-19.12-8.07-21.59
		c9.38-24.93,11.27-41.85,12.52-43.31c1.25-1.46,1.43,0.75,2.16,3.99c0.73,3.24-0.3,25.54,1.02,34.14
		c0.72,4.69,2.33,15.19,2.85,21.25c0.52,6.06,3.26,34.11,3.26,34.11s0.36,1.05,4.54-1.27c0.69-0.38,4.01-24.79,4.11-32
		c0.1-7.21-3.08-8.24-0.53-22.2c5.48-29.92,4.72-35.07-1.67-56.58C665.72,371.76,650.46,420.9,650.46,420.9z"/><linearGradient id="Z" x1="608.128" x2="723.545" y1="390.155" y2="390.155" gradientUnits="userSpaceOnUse"><stop offset="0" stop-color="#270036"/><stop offset=".594" stop-color="#4f008b"/><stop offset="1" stop-color="#4c24b1"/></linearGradient><path fill="url(#Z)" d="M723.55,359.76c-0.25-0.26-15.45,11.38-17.11,12.34c-3.26,1.89-6.81,1.79-10.5,2.02
		c-4.14,0.25-8.83-0.19-12.89,0.63c-2.11,0.42-2.35,0.97-3.45,3.21c-2.98,6.09-3.95,13.66-4.34,20.36c-0.41,6.98,2.27,11.83,5.08,18
		c0.96,2.09,2.3,4.25,0.45,6.16c-1.67,1.72-4.94,2.07-7.13,2.35c-5.38,0.7-13.63,1.14-18.82-1c-6.34-2.62-5.21-10.6-5.88-16.17
		c-0.45-3.73-2.26-9.32-3.29-12.94c-1.02-3.57-1.13-5.07-0.94-8.86c-1.98,5.62-3.65,15.22-8.97,18.78
		c-4.12,2.76-7.8-0.94-10.76-3.52c-5.62-4.89-11.24-9.78-16.86-14.67c1.2-1.11,2.39-2.21,3.59-3.32c0.39-0.36,0.41-0.46,0.86-0.82
		c1.05-0.84,0.93-1.15,2.01-0.41c0.73,0.5,2.67,2.3,3.29,2.87c2.03,1.89,3.82,3.04,5.86,4.94c1.77,1.65,4.8,5.47,7.52,4.13
		c2.09-1.03,2.66-5.28,3.38-7.17c1.99-5.27,4-10.57,6.38-15.68c2.54-5.47,8.18-8.37,13.64-10.55c4.73-1.89,11.06-1.51,15.85-0.29
		c3.37,0.86,4.57,0.91,7.92,1.84c3.2,0.89,6.2,2.03,9.44,2.7c3.79,0.78,7.65,1.05,11.51,1.1c3.03,0.04,4.29-0.47,6.84-2.25
		c3.43-2.38,8.46-6.5,12.23-8.41C720.87,353.91,721.69,357.86,723.55,359.76z"/><path fill="#fff" d="M667.11,351.52c0,0-0.57,7.1,0.79,9.22c1.37,2.13-1.17,5.01-6.39,4.02c-5.23-0.99-4.92-3.95-4.92-3.95
		s1.46-4.38,1.03-7.89C657.2,349.43,667.11,351.52,667.11,351.52z"/><path fill="#fff" d="M670.51 360.15c0 0-4.71 11.01-10.82 13.31 0 0-6.02-5.35-4.4-13.26C655.29 360.19 663.06 356.21 670.51 360.15zM663.13 327.02c0 0 9.42 1.36 8.04 15.26-1.38 13.9-9.69 12.8-10.24 12.79-.55-.01-8.34.29-9.01-16.67C651.92 338.39 651.6 325.84 663.13 327.02z"/><path d="M662.06,332.05c0,0,4.4,4.63,6.44,6.97c2.04,2.34,2.28,6.87,2.28,6.87s3.44-4.2,2-9.1c-1.44-4.9-4.85-14.42-13.47-11.5
		c-8.62,2.93-8.94,15.81-7.93,22.19C651.38,347.48,655.25,333.38,662.06,332.05z"/><path fill="#223247" d="M658.44,354.47c0,0,4.03,2.02,8.11-1.17c0,0-1.57,2.61-4.3,2.75C659.51,356.2,658.44,354.47,658.44,354.47z"/><path fill="#23344a" d="M632.57,392.55c-0.4,0.86-1.31,1.29-1.31,1.29c-4.3,2.32-5.05,7.81-5.2,9.75l-0.91-0.01
		C625.89,393.48,632.57,392.55,632.57,392.55z"/><path fill="#23344a" d="M632.32,392.61c0,0-6.95,0.33-8.91,10.87l0.71,0.11c0,0,1.36-7.77,6.91-9.85
		C631.03,393.74,631.8,393.41,632.32,392.61z"/><linearGradient id="aa" x1="636.15" x2="686.838" y1="447.616" y2="447.616" gradientUnits="userSpaceOnUse"><stop offset="0" stop-color="#270036"/><stop offset=".594" stop-color="#4f008b"/><stop offset="1" stop-color="#4c24b1"/></linearGradient><path fill="url(#aa)" d="M681.51,419.11c0,0,9.51,19.69,3.12,59.65c0,0-19.39-1.82-48.48-3.9c0,0,13.23-53.74,13.6-57.16
		C650.12,414.29,681.51,419.11,681.51,419.11z"/><path fill="#fff" d="M660.15 535.27c0 0 2.71 1.81 5.23-.6l.2 2.1c0 0-4.29 3.86-5.43-.29V535.27zM675.69 534.92c0 0 1.62 1.46 4.07-.73l.31 2.45c0 0-4.18 4.27-5.31.12L675.69 534.92z"/><linearGradient id="ab" x1="649.424" x2="678.784" y1="414.362" y2="414.362" gradientUnits="userSpaceOnUse"><stop offset="0" stop-color="#7633ff"/><stop offset=".216" stop-color="#4e53ff"/><stop offset=".436" stop-color="#2c6dff"/><stop offset=".646" stop-color="#1480ff"/><stop offset=".839" stop-color="#058cff"/><stop offset="1" stop-color="#0090ff"/></linearGradient><path fill="url(#ab)" d="M649.47,414.86c0,0,11.42,4.23,27.92-5.09c0,0,0.66,1.34,1.4,3.19c0,0-15.04,9.28-29.03,4.74
		C649.75,417.7,649.28,415.58,649.47,414.86z"/></g><linearGradient id="ac" x1="521.223" x2="431.973" y1="582.761" y2="582.278" gradientUnits="userSpaceOnUse"><stop offset="0" stop-color="#aebdf0"/><stop offset=".207" stop-color="#acb8f1"/><stop offset=".462" stop-color="#a6a9f4"/><stop offset=".741" stop-color="#9c90f9"/><stop offset="1" stop-color="#9072ff"/></linearGradient><path fill="url(#ac)" d="M507.7,582.48c0,4-17.44,7.24-38.94,7.24c-21.51,0-38.94-3.24-38.94-7.24s17.44-7.24,38.94-7.24
	C490.26,575.23,507.7,578.48,507.7,582.48z"/><g><path fill="#32658f" d="M487.71 578.15c.21-.06.73 5.6.15 6.28-.59.68-3.6.53-4.41.08-.81-.45 1.03-5.9 1.03-5.9S486.17 578.6 487.71 578.15zM458.61 580.27c0 0-.12 4.66-.88 4.99-.76.33-4.08-.23-5.88-1.21-1.8-.98-3.73-2.69-2.65-3.25 1.08-.56 4.29-.03 5.79-.38"/><path d="M446.68 462.5c0 0-1.14-1.7-.91-2.46.23-.75-.45-3.82-1.09-4.28-1.05-.75-.42.96-.55 1.36-.12.4-5.28-9.02-4.8-5.47.05.37 2.1 3.45 1.98 3.83 0 0-1.67 1.52-1.27 3.37.33 1.53 1.5 2.44 2.27 3.46.65.86 1.09 1.91 1.09 1.91L446.68 462.5zM467.91 504.47c0 0-2.46 13.94-3.12 17.43-.66 3.49-2.53 20.38-2.72 23.25-.2 2.87-3.02 13.69-2.89 14.72.13 1.03-4.18 21.63-4.18 21.63s1.47 1.22 3.03.11c.8-.57 7.34-17.67 8.59-22.63 1.22-4.84 4.71-16.52 5.37-18.1 6.11-14.73 6.16-20.85 6.95-21.81.8-.96.87.59 1.33 2.71.46 2.12 1.46 20.45 2.06 22.77.6 2.32.13 10.19.47 14.15.33 3.97 1.79 21.91 1.79 21.91s1.13 1.82 2.71.05c.34-.38 2.74-19.98 2.8-24.7.07-4.72.14-11.23.27-13.27 1.23-19.55 4.26-22.34-.51-36.18C480.94 480.59 467.91 504.47 467.91 504.47z"/><linearGradient id="ad" x1="471.163" x2="479.845" y1="497.805" y2="534.904" gradientUnits="userSpaceOnUse"><stop offset="0" stop-color="#7633ff"/><stop offset=".216" stop-color="#4e53ff"/><stop offset=".436" stop-color="#2c6dff"/><stop offset=".646" stop-color="#1480ff"/><stop offset=".839" stop-color="#058cff"/><stop offset="1" stop-color="#0090ff"/></linearGradient><path fill="url(#ad)" d="M487.77,500.68c0,0,6.67,11.3,5.02,30.51c0,0-18.67,2.11-30.78,1.16c0,0,4-21.82,6.01-28.6
				C469.26,499.57,487.77,500.68,487.77,500.68z"/><path fill="#6ea2e8" d="M485.89,458.53c-0.05-0.01-0.07-0.02-0.06-0.03C485.85,458.5,485.87,458.51,485.89,458.53z"/><linearGradient id="ae" x1="474.027" x2="474.846" y1="453.617" y2="501.106" gradientUnits="userSpaceOnUse"><stop offset="0" stop-color="#a1baff"/><stop offset=".305" stop-color="#c9d8ff"/><stop offset=".585" stop-color="#e7edff"/><stop offset=".826" stop-color="#f9faff"/><stop offset="1" stop-color="#fff"/></linearGradient><path fill="url(#ae)" d="M485.89,458.53c0.23,0.34,0.02,3.62-0.13,3.71c-0.28,0.17,2.97,2.02,5.69,3.26c0,0,0,0,0,0v0
		c-1.06-0.09-2.12-0.17-2.99-0.22c-0.66-0.04-1.21-0.06-1.57-0.06c-4.15-0.01-6.84-0.66-6.84-0.66s-6.07,0.13-6.45,0.29
		c-4.06,1.7-4.92,1.7-6.13,2.16c-0.48,0.18-1.87,0.8-3.54,1.55c-1.62,0.64-3.24,1.28-4.19,1.64c-2.42,0.91-6.28,2.38-6.28,2.38
		l-6.5-10.55l-4.19,2.27c0,0,5.73,15.99,9.59,16.45c2.62,0.31,9.05-2,12.91-3.51c0.27-0.07,0.43-0.12,0.43-0.12
		c-0.13,2.32-0.5,5.67,1.7,8.61c1.83,2.46,0.85,17.6,0.52,18.74l20.9-1.67c-0.59-1.45-3.6-6.65-3.98-9.66
		c-0.44-3.46,0.52-6.84,1.33-9.68c1.24-4.31,3.46-9.35,3.46-9.35s16.38-3.24,16.09-7.16C505.42,463.05,487.12,458.9,485.89,458.53z"/><path d="M485.83,444.67c0.08,0.14,1.98,2.02,1.55,6.69c-0.43,4.68,0.06,19.4,0.06,19.4s-1.27,1.7-8.54,1.81
		c-7.27,0.11-10.69-0.79-10.69-0.79s1.87-7.81,2.09-13.26c0.22-5.45,0.9-13.19,3.43-15.45
		C476.25,440.82,483.28,439.91,485.83,444.67z"/></g><linearGradient id="af" x1="323.374" x2="148.555" y1="569.143" y2="568.198" gradientUnits="userSpaceOnUse"><stop offset="0" stop-color="#aebdf0"/><stop offset=".207" stop-color="#acb8f1"/><stop offset=".462" stop-color="#a6a9f4"/><stop offset=".741" stop-color="#9c90f9"/><stop offset="1" stop-color="#9072ff"/></linearGradient><path fill="url(#af)" d="M296.88,568.59c0,5.02-34.15,9.09-76.28,9.09s-76.28-4.07-76.28-9.09s34.15-9.09,76.28-9.09
	S296.88,563.57,296.88,568.59z"/><g><path fill="#16202e" d="M261.23,561.84c0,0,6.41,8.63,5.53,10c-0.88,1.37-7.62,1.56-11.73,0c-4.11-1.56-4.2-11.68-6.06-16.03
		c-0.78-1.82,0.89-7.19,3.23-7.58c2.34-0.39,4.88,0.75,4.88,0.75S254.66,555.11,261.23,561.84z"/><polygon fill="#16202e" points="248.98 555.82 248.98 564.85 250.15 564.85 250.15 557.87"/><path fill="#16202e" d="M205.41,561.99c0,0,6.18,8.49,5.3,9.86c-0.88,1.37-7.62,1.56-11.73,0c-4.1-1.56-4.2-11.68-6.06-16.03
		c-0.78-1.82,0.89-7.19,3.22-7.58c2.34-0.39,5.08,0.84,5.08,0.84S198.84,555.25,205.41,561.99z"/><polygon fill="#16202e" points="192.93 555.82 192.93 564.85 194.1 564.85 194.1 557.87"/><path fill="#84350d" d="M258.55 555.91c-.49-3.48-1.41-6.93-1.42-6.99-1.62-7.55-7.79-36.54-7.57-38.18.25-1.89-5.11-21.9-5.49-27.2-.38-5.31-3.92-36.52-5.18-42.97-1.26-6.45-5.94-32.21-5.94-32.21s-22.83-59.88-41.75 3.76c-7.73 26.01-3.31 30.74-.97 66.87.24 3.77.38 15.8.51 24.52.12 8.38 4.47 42.09 5.25 45.4-.19.93-.46 2.76-.33 5.17.2 3.53 1.86 9.37 4.01 11.38 2.15 2.02 7.43 1.31 7.62.53.19-.78-4.01-7.23-4.79-10.07-.78-2.83-1.27-6.84-1.27-6.84s2.77-33.16 3.41-40.49c.63-7.33-.25-21.86.89-26.16 1.14-4.3 3.03-38.17 3.92-42.08.88-3.92 3.16-6.7 4.68-4.93 1.52 1.77 7.17 39.53 8.06 42.6.89 3.06 10.92 22.14 13.24 31.09 2.08 8.02 11.87 33.21 15.3 40.1.01.04.56 1.65 1 4.88.47 3.51 1.86 9.37 4.01 11.38 2.15 2.02 7.43 1.31 7.62.53C263.54 565.2 258.96 558.82 258.55 555.91zM159.53 412.32c0 0-1.65 2.18-2.51 2.45-.86.27-1.85 1.78-2.56 2.17-.72.39-3.07.77-3.64 1.42-.23.27-.99 2.48-1.52 2.98-.53.5-1.74 1.37-1.29 1.82.45.45 1.76-.04 1.76-.04s-.46.48-.18.99c.54 1 1.26.98 1.26.98s-.14.79.19 1.15c.73.79 1.42.76 1.42.76s.13.59.73 1.01c.77.54 1.61.13 1.61.13s.81.89 1.44.65c.63-.24.96-.74 1.39-1.06.43-.32 3.27-4.23 4.07-7.74.81-3.51 2.82-5.89 2.82-5.89L159.53 412.32z"/><path fill="#23344a" d="M160.47,437.95l-19.87-3.26l0.1-0.5c0.02-0.08,0.4-1.97,1.44-4.25c0.97-2.13,2.71-5,5.49-6.61
		c2.57-1.48,5.56-1.66,8.9-0.54c2.39,0.8,4.03,2.23,4.9,4.25c1.94,4.51-0.7,10.32-0.81,10.56L160.47,437.95z M141.78,433.89
		l18.1,2.97c0.52-1.28,2.18-5.9,0.66-9.42c-0.75-1.75-2.21-3-4.31-3.71c-3.06-1.03-5.79-0.88-8.1,0.46
		C143.95,426.6,142.22,432.2,141.78,433.89z"/><linearGradient id="ag" x1="108.126" x2="182.543" y1="463.632" y2="463.632" gradientUnits="userSpaceOnUse"><stop offset="0" stop-color="#a1baff"/><stop offset=".015" stop-color="#a7bfff"/><stop offset=".09" stop-color="#c3d3ff"/><stop offset=".175" stop-color="#d9e3ff"/><stop offset=".274" stop-color="#eaf0ff"/><stop offset=".396" stop-color="#f6f8ff"/><stop offset=".563" stop-color="#fdfeff"/><stop offset="1" stop-color="#fff"/></linearGradient><polygon fill="url(#ag)" points="108.13 490.18 171.75 498.46 182.54 440.19 116.02 428.8"/><linearGradient id="ah" x1="93.146" x2="116.018" y1="459.493" y2="459.493" gradientUnits="userSpaceOnUse"><stop offset="0" stop-color="#7633ff"/><stop offset=".159" stop-color="#7137ff"/><stop offset=".353" stop-color="#6243ff"/><stop offset=".568" stop-color="#4957ff"/><stop offset=".794" stop-color="#2672ff"/><stop offset="1" stop-color="#0090ff"/></linearGradient><polygon fill="url(#ah)" points="93.15 485.91 116.02 428.8 108.13 490.18 101.46 486.28"/><path fill="#23344a" d="M163.44,437.39l-21.27,0.04l0.02-0.54c0-0.09,0.08-2.12,0.77-4.68c0.64-2.38,1.96-5.68,4.58-7.84
		c2.42-1.99,5.51-2.69,9.18-2.1c2.63,0.42,4.59,1.63,5.85,3.58c2.8,4.36,1.05,10.87,0.98,11.15L163.44,437.39z M143.26,436.39
		l19.38-0.04c0.32-1.42,1.25-6.53-0.94-9.94c-1.09-1.69-2.82-2.74-5.14-3.12c-3.37-0.54-6.18,0.09-8.36,1.88
		C144.26,428.41,143.42,434.55,143.26,436.39z"/><linearGradient id="ai" x1="117.246" x2="187.389" y1="468.21" y2="468.21" gradientUnits="userSpaceOnUse"><stop offset="0" stop-color="#7633ff"/><stop offset=".216" stop-color="#4e53ff"/><stop offset=".436" stop-color="#2c6dff"/><stop offset=".646" stop-color="#1480ff"/><stop offset=".839" stop-color="#058cff"/><stop offset="1" stop-color="#0090ff"/></linearGradient><polygon fill="url(#ai)" points="119.63 500.88 187.39 498.51 180.11 435.86 117.25 435.54"/><linearGradient id="aj" x1="103.28" x2="119.632" y1="468.21" y2="468.21" gradientUnits="userSpaceOnUse"><stop offset="0" stop-color="#270036"/><stop offset=".594" stop-color="#4f008b"/><stop offset="1" stop-color="#4c24b1"/></linearGradient><polygon fill="url(#aj)" points="103.28 499.02 117.25 435.54 119.63 500.88 112.01 497.96"/><path fill="#84350d" d="M149.9,422.67c0,0,2.48-3.3,3.9-3.36c1.42-0.06,0.59,1.18,0.59,1.18s0.8-1.24,1.87-0.71
		c1.08,0.53,0.03,1.94,0.03,1.94s0.86-0.78,1.72,0.13c0.86,0.91-0.28,1.87-0.28,1.87s1.84-0.43,1.61,1.1
		c-0.39,2.57-3.09,3.98-3.09,3.98s-0.68,0.28-1.44-0.65c0,0-1.63,0.79-2.34-1.14c0,0-2.08-0.27-1.61-1.91
		C150.85,425.09,148.65,424.67,149.9,422.67z"/><path fill="#eea886" d="M227.62,315.85c-0.3-0.3,0.4-6.84,0.54-8.15l0-0.02l0.01-0.01c0.03-0.03,0.66-0.73,1.21-0.62
		c0.26,0.05,0.45,0.27,0.57,0.65c0.39,1.19-0.61,4.3-1.04,5.63c-0.08,0.23-0.13,0.4-0.15,0.49c-0.11,0.33-0.65,1.99-1,2.07
		c-0.01,0-0.02,0-0.04,0C227.68,315.9,227.65,315.88,227.62,315.85z M228.28,307.74c-0.32,2.97-0.77,7.77-0.57,8.03
		c0.01,0.01,0.01,0.01,0.02,0.01c0.2-0.05,0.65-1.19,0.91-1.99c0.03-0.09,0.08-0.26,0.16-0.49c0.39-1.2,1.42-4.4,1.04-5.55
		c-0.11-0.33-0.27-0.52-0.48-0.56c-0.03-0.01-0.07-0.01-0.1-0.01C228.83,307.17,228.36,307.65,228.28,307.74z"/><path d="M216.32,289.82c0,0-8.44-0.88-11.48,7.27c-3.04,8.15-5.91,10.82-6.27,15.1c-1.45,17.32-9.54,13.4-7.26,23.39
		c2.27,9.98,3.85,11.5,3.85,11.5l19.34-3.79l19.59,0.06c0,0-7.66-3.83-5.96-11.98c1.71-8.15,5.96-21.51,3.56-30.61
		C229.28,291.66,221.36,290.52,216.32,289.82z"/><path fill="#eea886" d="M205.98,315.89c-0.35-0.08-0.89-1.74-1-2.08c-0.02-0.09-0.08-0.26-0.15-0.49c-0.43-1.33-1.43-4.44-1.04-5.63
		c0.12-0.38,0.32-0.59,0.57-0.65c0.55-0.11,1.18,0.58,1.21,0.62l0.01,0.01l0,0.02c0.14,1.31,0.84,7.85,0.54,8.15
		c-0.03,0.03-0.06,0.04-0.1,0.04C206,315.9,205.99,315.9,205.98,315.89z M204.38,307.18c-0.21,0.04-0.37,0.23-0.48,0.56
		c-0.38,1.15,0.65,4.35,1.04,5.55c0.08,0.23,0.13,0.4,0.15,0.49c0.26,0.8,0.71,1.94,0.91,1.99c0.01,0,0.01,0,0.02-0.01
		c0.19-0.26-0.25-5.05-0.57-8.03C205.36,307.64,204.82,307.09,204.38,307.18z"/><linearGradient id="ak" x1="201.788" x2="220.556" y1="343.692" y2="481.775" gradientUnits="userSpaceOnUse"><stop offset="0" stop-color="#e19000"/><stop offset=".207" stop-color="#e39504"/><stop offset=".462" stop-color="#e9a410"/><stop offset=".741" stop-color="#f3bd23"/><stop offset="1" stop-color="#ffdb3b"/></linearGradient><path fill="url(#ak)" d="M236.34,416.38c-1.39-4.93-1.44-11.05-4.15-13.2c-0.92-8.14-1.92-23.12,0.7-26.53
		c4.17-5.43,4.55-13.14,4.3-17.44c0,0,11.54,20.86,12.26,22.43c2.44,5.33-2.27,7.53-5.57,10.54l-7.53,6.24l4.09,7.63l15.7-10.97
		c7.31-6.67,7.33-11.79,1.39-23.54c-1.81-3.57-12.01-22.54-13.95-24.56c-1.94-2.02-13.14-9.77-21.15-12.3
		c-8-2.53-12.55-0.08-12.55-0.08s-8.22,1.48-15.82,4.49c-4.92,1.95-24.09,41.99-24.78,43.73c-2.58,6.45-13.43,30.22-12.55,30.42
		c0.46,0.1,7.3,4.06,6.77,3.66c-0.21-0.16,15.08-28.42,16.53-32.13c2.53-6.46,13.2-25.18,13.2-25.18s2.82,5.15,3.91,13.65
		c0.7,5.42,0.6,9.6,0.32,15.98c-0.24,5.61-1.5,9.57-2.61,12.25c0,0-9.19,14.36-8.73,40.48c0.4,22.13,2.8,30.25,2.8,30.25
		s14.93,11.62,39.19,9.72c24.26-1.9,24.81-6.35,30.63-3.95c0,0-6.96-12.51-14.56-25.15C237.39,441.56,237.74,421.31,236.34,416.38z"/><path fill="#84350d" d="M215.21,294.59c0,0-11.18,1.61-9.54,18.12c1.64,16.5,11.5,15.19,12.16,15.18c0.66-0.01,9.9,0.34,10.7-19.79
		C228.52,308.09,228.9,293.2,215.21,294.59z"/><path fill="#84350d" d="M210.24,324.96c0,0,0.69,8.58-0.96,11.16c-1.65,2.57,1.41,6.06,7.73,4.87c6.32-1.2,5.95-4.78,5.95-4.78
		s-1.77-5.3-1.25-9.54C222.23,322.43,210.24,324.96,210.24,324.96z"/><path d="M216.49,300.57c0,0-5.22,5.49-7.65,8.27c-2.43,2.78-2.7,8.15-2.7,8.15s-4.09-4.99-2.38-10.8
		c1.71-5.81,5.75-17.12,15.99-13.65c10.24,3.48,10.62,18.77,9.42,26.35C229.16,318.89,224.56,302.15,216.49,300.57z"/><path fill="#84350d" d="M206.32,335.36c0,0,7.75,19.63,12.46,23.05c0,0,6.19-20.03,5.76-22.96
		C224.54,335.45,215.2,331.79,206.32,335.36z"/><path d="M222.7,330.61c0,0,13.82,12.3,10.23,19.97c-3.06,6.55-13.91,2.53-12.12-4.33C222.6,339.39,222.7,330.61,222.7,330.61z"/><polygon fill="#fab46c" points="236.34 398.42 237.08 399.8 237.12 397.78"/><polygon fill="#00759f" points="221.63 366.85 232.62 419.8 266.7 411.84 251.49 362.44"/><path fill="#23344a" d="M239.54,373.8c0.62,0,1.25-0.1,1.88-0.31c1.79-0.58,3-1.6,3.61-3.04c1.28-3.05-0.6-6.86-0.68-7.02l-0.36,0.18
		c0.02,0.04,1.88,3.81,0.67,6.69c-0.56,1.33-1.69,2.27-3.36,2.81c-6.38,2.05-9.88-7.64-9.91-7.74l-0.38,0.13
		c0.01,0.02,0.91,2.56,2.62,4.79C235.41,372.61,237.42,373.8,239.54,373.8z"/><polygon points="232.62 419.8 230.8 418.87 229.68 420.39 221.63 366.85"/><path fill="#784331" d="M228.85,399.52c0,0-2.26,0.6-2.98,0.71c-0.72,0.1,0.17,1.43,1.05,1.47
		C227.8,401.73,228.85,399.52,228.85,399.52z"/><path fill="#84350d" d="M230.71,410.61c0,0,1.05-0.05,1.5-0.3c0,0,0.78-0.51,1.36-0.84c0.18-0.1,0.35-0.19,0.46-0.24
		c0.46-0.19,1.53-0.46,2.51-1.23c0.98-0.76,4.17-3.8,4.17-3.8l-2.11-3.18l-1.63-2.53c0,0-6.86,0.19-7.86,0.79
		c-0.1,0.06-0.19,0.12-0.27,0.19c-0.79,0.59-1.14,1.37-1.52,1.73c-0.14,0.13-1.43,1.54-1.36,2.11c0.11,0.79,0.5,1.29,0.99,1.52
		c0,0,0.28,1.53,1.08,2.21c0,0,0.21,1.42,1.45,1.98C229.48,409.03,229.86,410.45,230.71,410.61z"/><linearGradient id="al" x1="232.141" x2="253.398" y1="358.466" y2="396.471" gradientUnits="userSpaceOnUse"><stop offset="0" stop-color="#e19000"/><stop offset=".207" stop-color="#e39504"/><stop offset=".462" stop-color="#e9a410"/><stop offset=".741" stop-color="#f3bd23"/><stop offset="1" stop-color="#ffdb3b"/></linearGradient><path fill="url(#al)" d="M236.34,398.42l0.74,1.37l3.35,6.26l15.7-10.97c7.31-6.67,7.33-11.79,1.39-23.54
		c-1.01-1.99-4.61-8.74-7.95-14.69l-11.25,4.41c2.93,5.3,10.54,19.11,11.12,20.38c2.44,5.33-2.27,7.53-5.57,10.54l-6.76,5.6
		L236.34,398.42z"/></g><g><circle cx="225.77" cy="112.45" r="3.12" fill="#fff"/><circle cx="282.32" cy="103.2" r="3.12" fill="#fff"/><circle cx="454.99" cy="203.1" r="3.12" fill="#fff"/><circle cx="540.53" cy="147.16" r="3.12" fill="#fff"/></g><linearGradient id="am" x1="179.357" x2="303.498" y1="175.181" y2="175.181" gradientUnits="userSpaceOnUse"><stop offset="0" stop-color="#a1baff"/><stop offset=".089" stop-color="#acc2ff"/><stop offset=".499" stop-color="#d9e3ff"/><stop offset=".816" stop-color="#f5f7ff"/><stop offset="1" stop-color="#fff"/></linearGradient><path fill="url(#am)" d="M287.87,171.72c-2.91,0-5.64,0.8-7.98,2.19c-0.56-8.13-7.32-14.55-15.59-14.55c-1.79,0-3.5,0.32-5.09,0.87
	c-2.3-7.45-9.25-12.86-17.45-12.86c-0.62,0-1.22,0.04-1.82,0.1c-7.66,0.48-14.05,5.67-16.27,12.73c-1.61-0.56-3.32-0.88-5.12-0.88
	c-8.27,0-15.03,6.42-15.59,14.55c-2.34-1.39-5.06-2.19-7.98-2.19c-8.63,0-15.63,7-15.63,15.63c0,8.63,7,15.63,15.63,15.63
	c0.58,0,1.14-0.03,1.7-0.09h24.01c0.7,0.08,1.41,0.14,2.14,0.14c0.63,0,1.25-0.03,1.87-0.09h34.27c0.35,0.02,0.7,0.05,1.05,0.05
	c0.36,0,0.7-0.03,1.05-0.05h25.09c0.56,0.06,1.13,0.09,1.7,0.09c8.63,0,15.63-7,15.63-15.63
	C303.5,178.72,296.5,171.72,287.87,171.72z" opacity=".3"/><linearGradient id="an" x1="421.302" x2="564.808" y1="234.43" y2="234.43" gradientUnits="userSpaceOnUse"><stop offset="0" stop-color="#a1baff"/><stop offset=".089" stop-color="#acc2ff"/><stop offset=".499" stop-color="#d9e3ff"/><stop offset=".816" stop-color="#f5f7ff"/><stop offset="1" stop-color="#fff"/></linearGradient><path fill="url(#an)" d="M443.97,229.38c4.23,0,8.18,1.16,11.57,3.18c0.81-11.79,10.62-21.1,22.61-21.1c2.92,0,5.71,0.56,8.28,1.57
	c3.27-10.93,13.39-18.9,25.38-18.9c14.63,0,26.49,11.86,26.49,26.49c0,0.37-0.01,0.75-0.03,1.12c0.01,0,0.02,0,0.03,0
	c14.63,0,26.49,11.86,26.49,26.5c0,14.63-11.86,26.49-26.49,26.49c-0.91,0-1.82-0.05-2.71-0.14h-89.16
	c-0.81,0.09-1.64,0.14-2.47,0.14c-12.52,0-22.67-10.15-22.67-22.67C421.3,239.53,431.45,229.38,443.97,229.38z" opacity=".6"/></svg>